<?xml version="1.0" encoding="UTF-8"?>
<svg version="1.1" xmlns="http://www.w3.org/2000/svg" width="380" height="132">
<path d="M0 0 C2.16177979 1.25408492 4.32052583 2.5134107 6.4765625 3.77734375 C8.20065086 4.78410264 9.9247415 5.79085781 11.64920044 6.79698181 C13.37067565 7.80151156 15.09158991 8.80700242 16.8125 9.8125 C19.81940504 11.55164816 22.84338602 13.25211831 25.8828125 14.93359375 C26.74986816 15.41820068 27.61692383 15.90280762 28.51025391 16.40209961 C30.10538193 17.2915627 31.70631531 18.17072732 33.31396484 19.03735352 C38.81110671 22.13097505 42.11722841 25.4102936 43.9765625 31.65234375 C44.1988251 37.09777749 43.18338174 40.50109534 39.5390625 44.58984375 C35.56756895 47.42798543 31.95435712 48.42328092 27.1015625 47.71484375 C20.97227434 45.34221608 15.36849598 42.13807904 9.81640625 38.65234375 C3.57439547 34.45454678 3.57439547 34.45454678 -3.6484375 33.77734375 C-4.7209375 34.08671875 -5.7934375 34.39609375 -6.8984375 34.71484375 C-8.10509208 38.48809952 -8.04325877 42.2239497 -8.0402832 46.14208984 C-8.04375763 46.88406113 -8.04723206 47.62603241 -8.05081177 48.39048767 C-8.05815122 49.99847035 -8.06350623 51.60646305 -8.06710243 53.21445847 C-8.07428587 55.76208398 -8.08996594 58.30951889 -8.10844421 60.85708618 C-8.160829 68.09935921 -8.20889024 75.34152588 -8.22436523 82.58398438 C-8.23445809 87.01732088 -8.26381238 91.45017436 -8.30568504 95.88331985 C-8.31797836 97.56972217 -8.32311934 99.25619275 -8.32088661 100.9426384 C-8.31852809 103.30521801 -8.34073869 105.66641605 -8.3684082 108.02880859 C-8.36180679 108.72095963 -8.35520538 109.41311066 -8.34840393 110.12623596 C-8.44334053 115.07846811 -9.79878609 117.90032625 -12.8984375 121.71484375 C-17.2754869 124.63287668 -20.68307521 125.35532684 -25.8984375 124.71484375 C-29.37942133 123.37986851 -32.1427342 121.60785337 -34.57730103 118.73094177 C-36.54798264 114.23195999 -36.31610482 110.00562907 -36.28662109 105.14477539 C-36.29187805 104.08079025 -36.29713501 103.01680511 -36.30255127 101.920578 C-36.31574935 98.40523577 -36.3070129 94.89034681 -36.296875 91.375 C-36.29889593 88.93029188 -36.30180753 86.48558435 -36.30557251 84.0408783 C-36.30999574 78.91724915 -36.30356518 73.79377692 -36.28955078 68.67016602 C-36.27246818 62.10505954 -36.28229456 55.54032125 -36.30026817 48.97522831 C-36.31111359 43.92660249 -36.30765597 38.87806381 -36.2998848 33.82943535 C-36.29788443 31.40893955 -36.30033631 28.98843583 -36.30732346 26.5679493 C-36.31494913 23.18318891 -36.30331687 19.79902282 -36.28662109 16.41430664 C-36.29269379 15.41515228 -36.29876648 14.41599792 -36.30502319 13.38656616 C-36.2565567 8.07795589 -35.91743736 4.27985315 -32.8984375 -0.28515625 C-21.52469489 -11.16438831 -12.17238234 -6.9193266 0 0 Z " fill="#6AA5F0" transform="translate(35.8984375,7.28515625)"/>
<path d="M0 0 C3.4836104 1.31080637 6.24682621 3.11202877 8.6778717 5.97816467 C10.65764061 10.50309289 10.42582921 14.77348563 10.40405273 19.66186523 C10.41091599 20.73560394 10.41777924 21.80934265 10.42485046 22.9156189 C10.44314515 26.46341186 10.439277 30.01076375 10.43359375 33.55859375 C10.43815424 36.0257227 10.44345942 38.49285037 10.44947815 40.9599762 C10.45841452 46.13067791 10.45597999 51.30122521 10.44604492 56.47192383 C10.43455466 63.09763819 10.45476565 69.72281966 10.48396206 76.34846401 C10.50230928 81.44341924 10.50203449 86.53824642 10.49632454 91.63322639 C10.49617115 94.07605804 10.50223033 96.51889828 10.51461601 98.96169853 C10.5294956 102.37771905 10.51887002 105.79275064 10.50170898 109.20874023 C10.51137695 110.21724533 10.52104492 111.22575043 10.53100586 112.26481628 C10.45804179 119.20196968 9.25107669 122.57824178 4.4375 127.64453125 C-0.84569243 131.9371251 -4.25421707 132.36707032 -11 132 C-13.48594395 131.06377315 -15.61857472 130.11679044 -17.9375 128.875 C-18.60644287 128.52880615 -19.27538574 128.1826123 -19.96459961 127.82592773 C-29.56332902 122.77063268 -38.88063241 117.18829421 -48.20507812 111.64941406 C-50.71360556 110.16901475 -53.2346083 108.71492212 -55.765625 107.2734375 C-57.11460831 106.49483493 -58.46356875 105.71619274 -59.8125 104.9375 C-60.95332031 104.28652344 -62.09414063 103.63554688 -63.26953125 102.96484375 C-66.91915974 100.33857318 -68.65133118 97.98207232 -69.43359375 93.53515625 C-69.44252728 87.88023365 -69.01376943 84.33064597 -65 80 C-60.84946963 77.00775717 -57.65516805 76.68518628 -52.61938477 77.32495117 C-46.27180705 78.96080282 -40.77985539 83.09495515 -35.26367188 86.515625 C-34.28591797 87.10085937 -33.30816406 87.68609375 -32.30078125 88.2890625 C-31.42591064 88.83256348 -30.55104004 89.37606445 -29.6496582 89.93603516 C-26.28436252 91.28736277 -24.44715139 91.03423381 -21 90 C-19.2123054 88.96007977 -19.2123054 88.96007977 -18 87 C-17.70598946 84.47547718 -17.59310229 82.19515322 -17.61523438 79.67041016 C-17.6098616 78.92697861 -17.60448883 78.18354706 -17.59895325 77.41758728 C-17.58917126 75.80360132 -17.58623238 74.18956275 -17.58930969 72.57555008 C-17.59378389 70.01970551 -17.57979869 67.46455479 -17.56091309 64.90878296 C-17.52410316 59.4808667 -17.51041985 54.0530227 -17.5 48.625 C-17.48792127 42.34169893 -17.46635877 36.05873491 -17.41999817 29.77558517 C-17.40643065 27.26005565 -17.41059876 24.74495239 -17.41540527 22.22940063 C-17.40606265 20.68238789 -17.39589333 19.13537984 -17.38476562 17.58837891 C-17.39091385 16.89106155 -17.39706207 16.1937442 -17.40339661 15.47529602 C-17.34871854 11.13961705 -16.61650942 8.46448844 -14 5 C-9.15757437 0.74811408 -6.5255857 -0.53488407 0 0 Z " fill="#65C3F1" transform="translate(102,0)"/>
<path d="M0 0 C1.18480453 -0.01591187 2.36960907 -0.03182373 3.59031677 -0.04821777 C4.86641312 -0.04841919 6.14250946 -0.04862061 7.45727539 -0.04882812 C9.4286422 -0.06024841 9.4286422 -0.06024841 11.43983459 -0.07189941 C14.21974222 -0.08533338 16.99936591 -0.08691806 19.77929688 -0.08105469 C23.33505376 -0.07515909 26.88944494 -0.10574598 30.44493771 -0.14617157 C33.84492684 -0.17829644 37.24463497 -0.17393227 40.64477539 -0.17382812 C41.9188475 -0.19022339 43.19291962 -0.20661865 44.50559998 -0.22351074 C54.32655851 -0.14658189 54.32655851 -0.14658189 57.43212891 2.734375 C59.62742952 6.23260863 59.63452941 8.35701084 59.11743164 12.41992188 C57.92975309 15.80023776 57.21917939 16.35209004 54.11743164 18.41992188 C52.14440918 18.6782074 52.14440918 18.6782074 49.87719727 18.69116211 C49.0262146 18.70134872 48.17523193 18.71153534 47.29846191 18.72203064 C45.92494568 18.72524071 45.92494568 18.72524071 44.52368164 18.72851562 C42.58748062 18.75366821 40.65128277 18.77906634 38.71508789 18.8046875 C35.66024546 18.83347891 32.60545803 18.85749527 29.55053711 18.8762207 C26.60379921 18.89782157 23.65769998 18.93724914 20.71118164 18.97851562 C19.79550415 18.97863144 18.87982666 18.97874725 17.93640137 18.97886658 C16.65992737 18.99887474 16.65992737 18.99887474 15.35766602 19.01928711 C14.60948608 19.02435776 13.86130615 19.02942841 13.0904541 19.03465271 C10.57452975 19.52593352 9.68122847 20.42537759 8.11743164 22.41992188 C7.60744066 24.59256315 7.60744066 24.59256315 7.67993164 26.91992188 C7.6605957 27.69335938 7.64125977 28.46679688 7.62133789 29.26367188 C7.93862377 31.54150357 7.93862377 31.54150357 9.79101562 33.03149414 C12.67133634 34.75049759 14.49636858 34.78859625 17.83618164 34.79101562 C19.48166992 34.81711914 19.48166992 34.81711914 21.16040039 34.84375 C23.46507575 34.85286454 25.76976987 34.85807291 28.07446289 34.859375 C29.17145508 34.87806641 30.26844727 34.89675781 31.39868164 34.91601562 C32.39963867 34.91786865 33.4005957 34.91972168 34.43188477 34.92163086 C37.84885665 35.55563446 39.00456131 36.70818258 41.11743164 39.41992188 C42.19037337 43.35404154 42.53722685 45.47538266 40.86743164 49.23242188 C39.11743164 51.41992188 39.11743164 51.41992188 36.11743164 53.41992188 C33.52954102 53.69116211 33.52954102 53.69116211 30.46118164 53.72851562 C28.8040918 53.7662207 28.8040918 53.7662207 27.11352539 53.8046875 C24.78285186 53.83984291 22.45211615 53.87109317 20.12133789 53.8984375 C19.01661133 53.92486328 17.91188477 53.95128906 16.77368164 53.97851562 C15.76112305 53.99197021 14.74856445 54.0054248 13.70532227 54.01928711 C11.08632451 54.21454854 11.08632451 54.21454854 9.28662109 55.81054688 C7.72976603 57.95353885 7.74868911 59.3563285 7.80493164 61.98242188 C7.81073242 63.15998047 7.81073242 63.15998047 7.81665039 64.36132812 C7.94040141 66.64119021 7.94040141 66.64119021 10.11743164 68.41992188 C11.97875042 68.72850926 11.97875042 68.72850926 14.12060547 68.69116211 C14.94518753 68.70134872 15.76976959 68.71153534 16.61933899 68.72203064 C17.95837532 68.72524071 17.95837532 68.72524071 19.32446289 68.72851562 C21.20923153 68.75368118 23.09399709 68.77907912 24.97875977 68.8046875 C27.95441857 68.83341055 30.93002351 68.85742246 33.90576172 68.8762207 C36.77478435 68.89789977 39.64316335 68.9373487 42.51196289 68.97851562 C43.39858109 68.97863144 44.28519928 68.97874725 45.19868469 68.97886658 C49.97106421 69.05519123 53.27533417 69.2699857 57.11743164 72.41992188 C59.60902204 76.15730747 59.57536449 77.9932377 59.11743164 82.41992188 C57.32180759 85.17321209 56.06488242 86.94619649 53.11743164 88.41992188 C51.29576006 88.52613345 49.47023144 88.5687291 47.64550781 88.58105469 C45.92813667 88.595466 45.92813667 88.595466 44.17607117 88.61016846 C42.31206413 88.61654327 42.31206413 88.61654327 40.41040039 88.62304688 C39.13771805 88.62874695 37.86503571 88.63444702 36.55378723 88.64031982 C33.85613426 88.64978118 31.15859284 88.65667202 28.4609375 88.66015625 C25.0108673 88.66563368 21.56119323 88.68964507 18.11124706 88.7181282 C14.81516158 88.74128156 11.51905581 88.74320642 8.22290039 88.74804688 C6.98630173 88.76039368 5.74970306 88.77274048 4.47563171 88.78546143 C3.32126114 88.78246033 2.16689056 88.77945923 0.97753906 88.77636719 C-0.03568924 88.78001282 -1.04891754 88.78365845 -2.09284973 88.78741455 C-5.43909243 88.34661035 -7.23962639 87.51465009 -9.88256836 85.41992188 C-12.16083267 81.47632241 -12.13565719 77.81058104 -12.14135742 73.32226562 C-12.14486206 72.62730988 -12.1483667 71.93235413 -12.15197754 71.21633911 C-12.16074606 68.92993033 -12.15496311 66.64383354 -12.14819336 64.35742188 C-12.14954141 62.76228781 -12.15148312 61.16715415 -12.1539917 59.57202148 C-12.15693635 56.23319578 -12.15266656 52.89447728 -12.14331055 49.55566406 C-12.13191637 45.28182949 -12.13847937 41.00824614 -12.15045547 36.73442078 C-12.1576919 33.44183468 -12.15537796 30.14930788 -12.15019989 26.85671997 C-12.14886832 25.28109711 -12.15049381 23.70546881 -12.155159 22.12985229 C-12.16025359 19.92561641 -12.15247316 17.72178406 -12.14135742 15.51757812 C-12.13976624 14.26468994 -12.13817505 13.01180176 -12.13653564 11.72094727 C-11.80876518 7.46064012 -11.15399752 4.71227123 -8.12522888 1.63366699 C-5.26529223 0.08584729 -3.24777923 0.02624329 0 0 Z " fill="#66BDF1" transform="translate(261.882568359375,43.580078125)"/>
<path d="M0 0 C0.75508347 -0.0071553 1.51016693 -0.01431061 2.28813171 -0.02168274 C4.77466017 -0.03854013 7.2593782 -0.01918844 9.74584961 0.00219727 C11.4779017 0.00136837 13.20995372 -0.00109179 14.94200134 -0.00511169 C18.56769557 -0.00796753 22.19277129 0.00671163 25.81835938 0.03417969 C30.46472895 0.06828802 35.1099946 0.06223402 39.75641727 0.04351711 C43.33126523 0.03294773 46.90585639 0.04188386 50.48068047 0.05690193 C52.19388504 0.06208297 53.90711644 0.06160288 55.62031746 0.05535698 C58.01439203 0.0499043 60.40688675 0.07027816 62.80078125 0.09765625 C63.50790253 0.09113037 64.2150238 0.08460449 64.943573 0.07788086 C68.33490792 0.14380573 70.05056014 0.40517591 72.74412537 2.53944397 C75.40875582 6.04133629 75.76761832 8.2254689 75.33569336 12.63110352 C73.53575562 15.33101013 72.25192036 17.17299002 69.33569336 18.63110352 C67.40082504 18.76118023 65.46194082 18.83368094 63.52319336 18.87719727 C62.36561523 18.91006836 61.20803711 18.94293945 60.01538086 18.97680664 C57.56235014 19.03800221 55.10921893 19.09529431 52.65600586 19.14868164 C51.49842773 19.1828418 50.34084961 19.21700195 49.14819336 19.25219727 C48.08213867 19.27725342 47.01608398 19.30230957 45.91772461 19.328125 C43.17388413 19.37965868 43.17388413 19.37965868 41.33569336 21.63110352 C41.03130817 24.26602521 41.03130817 24.26602521 41.08032227 27.37841797 C41.06988388 29.18588249 41.06988388 29.18588249 41.05923462 31.02986145 C41.06023163 32.33815414 41.06122864 33.64644684 41.06225586 34.99438477 C41.05369883 36.34719297 41.04369963 37.69999276 41.03231812 39.05278015 C40.98602683 44.80239691 40.96145037 50.55196119 40.95483398 56.30175781 C40.94981106 59.81858271 40.9255191 63.33485453 40.88950729 66.85149193 C40.87497474 68.8394435 40.88234267 70.82751621 40.89004517 72.81550598 C40.87678192 74.02993881 40.86351868 75.24437164 40.84985352 76.49560547 C40.84700348 77.56212845 40.84415344 78.62865143 40.84121704 79.72749329 C40.2126052 83.33809325 38.84947905 85.0138215 36.33569336 87.63110352 C33.43273531 89.08258254 31.56307557 89.00349377 28.33569336 88.63110352 C25.3495767 87.05584154 24.12588285 86.37280959 22.33569336 83.63110352 C21.43847733 79.06448351 21.54641903 74.54526118 21.60131836 69.90454102 C21.59514113 68.55122283 21.58604291 67.19791511 21.57415771 65.84463501 C21.54946727 62.29123378 21.558642 58.73877481 21.57672119 55.18536377 C21.60016289 49.49158145 21.5729513 43.79785847 21.54399872 38.10414505 C21.538883 36.117148 21.54976528 34.13013067 21.56085205 32.14315796 C21.56034851 30.93825714 21.55984497 29.73335632 21.55932617 28.49194336 C21.56409973 27.43002777 21.56887329 26.36811218 21.5737915 25.27401733 C21.52710181 22.40059263 21.52710181 22.40059263 19.33569336 19.63110352 C16.59039587 19.1860121 16.59039587 19.1860121 13.37475586 19.26000977 C12.18108398 19.24260742 10.98741211 19.22520508 9.75756836 19.20727539 C7.23414184 19.19818898 4.7106984 19.19295652 2.18725586 19.19165039 C0.99100586 19.17295898 -0.20524414 19.15426758 -1.43774414 19.13500977 C-3.08395752 19.13223022 -3.08395752 19.13223022 -4.76342773 19.12939453 C-8.31164929 18.5199079 -9.44792556 17.40400514 -11.66430664 14.63110352 C-13.23366258 11.49239164 -13.01631767 9.0925453 -12.66430664 5.63110352 C-8.96530239 0.76218216 -5.864618 -0.09724943 0 0 Z " fill="#64CBF2" transform="translate(167.664306640625,43.368896484375)"/>
<path d="M0 0 C0.639375 -0.01289062 1.27875 -0.02578125 1.9375 -0.0390625 C5.30202987 1.04421416 7.30052937 2.57739531 9 5.625 C9.75326374 10.20902209 9.65197992 14.7586891 9.59375 19.39453125 C9.59203697 20.75827427 9.59210654 22.12202059 9.59387207 23.48576355 C9.59222093 26.34149779 9.57357006 29.19644508 9.54199219 32.05200195 C9.50242728 35.69349536 9.49793495 39.3339538 9.50545502 42.97562122 C9.50854161 45.79230553 9.49634288 48.6087618 9.47932434 51.42539024 C9.46896927 53.41490244 9.46844809 55.40445807 9.46813965 57.39399719 C9.33799405 67.40973081 7.92344126 74.36341292 0.96875 81.86328125 C-4.92117223 87.13382673 -11.81625562 88.97185851 -19.5703125 88.83203125 C-27.65023699 88.14354894 -33.68155136 84.70150806 -39 78.625 C-42.98053465 72.35508271 -44.97980915 66.07154954 -44 58.625 C-42.20606332 55.75470131 -41.01736724 54.13368362 -38 52.625 C-34.78081635 52.33885034 -32.39146179 52.49754732 -29.3125 53.5 C-26.19508299 56.36465347 -25.70285042 59.19438001 -24.7734375 63.25 C-23.92763029 65.84722617 -23.12398247 66.94594154 -21 68.625 C-18.205432 69.55652267 -16.63543875 69.82470932 -13.8125 68.9375 C-11.58487534 67.32439249 -11.01219475 66.17786571 -10 63.625 C-9.70762576 60.91302299 -9.70762576 60.91302299 -9.76049805 57.92602539 C-9.75676682 56.78126236 -9.75303558 55.63649933 -9.74919128 54.45704651 C-9.75332535 53.22469772 -9.75745941 51.99234894 -9.76171875 50.72265625 C-9.74630279 48.11522915 -9.72999943 45.50780717 -9.71289062 42.90039062 C-9.69417826 38.78778913 -9.68604637 34.67538082 -9.69458008 30.56274414 C-9.70156389 26.59493568 -9.66912054 22.62784218 -9.63671875 18.66015625 C-9.64692551 17.4298317 -9.65713226 16.19950714 -9.66764832 14.93190002 C-9.55857887 5.43802761 -9.55857887 5.43802761 -6.58911133 2.35180664 C-4.10960639 0.69810193 -2.93449804 -0.05916327 0 0 Z " fill="#6D94EF" transform="translate(371,43.375)"/>
<path d="M0 0 C0.639375 -0.01289062 1.27875 -0.02578125 1.9375 -0.0390625 C5.26967078 1.03379552 6.79790842 2.94764739 9 5.625 C9.49124214 8.35483098 9.67693618 10.46051891 9.63110352 13.18164062 C9.63825882 13.92536423 9.64541412 14.66908783 9.65278625 15.43534851 C9.66964367 17.88461437 9.65029028 20.33204202 9.62890625 22.78125 C9.62973523 24.48848624 9.63219572 26.19572239 9.63621521 27.9029541 C9.63907116 31.47737716 9.62439238 35.05117289 9.59692383 38.62548828 C9.56284092 43.20226278 9.56886091 47.77791578 9.5875864 52.35474396 C9.59816598 55.87902131 9.58920997 59.40303868 9.57420158 62.92729187 C9.56902631 64.61455004 9.56949363 66.30183544 9.57574654 67.98908997 C9.58121054 70.34943818 9.56078831 72.70819287 9.53344727 75.06835938 C9.53997314 75.76253464 9.54649902 76.4567099 9.55322266 77.17192078 C9.46028889 81.90124534 8.33094102 84.29636742 5 87.625 C2.14675563 89.05162219 0.16545451 88.93533868 -3 88.625 C-5.69990662 86.82506226 -7.5418865 85.541227 -9 82.625 C-9.1187051 80.21072942 -9.17827516 77.82435615 -9.19287109 75.40893555 C-9.20104858 74.66565002 -9.20922607 73.9223645 -9.21765137 73.15655518 C-9.24250628 70.69161792 -9.25902154 68.22673826 -9.2734375 65.76171875 C-9.27876118 64.92028635 -9.28408485 64.07885395 -9.28956985 63.2119236 C-9.31630188 58.75823502 -9.33567657 54.30457448 -9.35009766 49.85083008 C-9.36674582 45.25045516 -9.41152424 40.6507966 -9.4624691 36.05069256 C-9.49612406 32.51362789 -9.50767311 28.97673364 -9.51332474 25.4395237 C-9.52004212 23.74382871 -9.53527696 22.04814513 -9.55921555 20.35260582 C-9.59083444 17.97755936 -9.59090981 15.6044497 -9.58349609 13.22924805 C-9.59990143 12.53035965 -9.61630676 11.83147125 -9.63320923 11.11140442 C-9.58386052 7.24422197 -9.0807884 5.7234456 -6.59243774 2.6912384 C-4.07806039 0.6872161 -3.13635382 -0.06323294 0 0 Z " fill="#68B4F1" transform="translate(135,43.375)"/>
<path d="M0 0 C1.184729 -0.01583633 2.36945801 -0.03167267 3.59008789 -0.04798889 C4.86102295 -0.04302902 6.13195801 -0.03806915 7.44140625 -0.03295898 C8.75423584 -0.03915756 10.06706543 -0.04535614 11.41967773 -0.05174255 C14.19370102 -0.06213074 16.96721082 -0.05760842 19.74121094 -0.04296875 C23.28914844 -0.02577341 26.83546752 -0.04928993 30.38322449 -0.08445835 C33.77771339 -0.11174707 37.17181275 -0.1016956 40.56640625 -0.09545898 C41.83734131 -0.10871719 43.10827637 -0.1219754 44.41772461 -0.13563538 C54.20940991 -0.03205027 54.20940991 -0.03205027 57.31640625 2.85009766 C59.51543665 6.34684869 59.52106461 8.47006014 59.00390625 12.53344727 C57.8162277 15.91376315 57.105654 16.46561543 54.00390625 18.53344727 C52.03088379 18.79173279 52.03088379 18.79173279 49.76367188 18.8046875 C48.91268921 18.81487411 48.06170654 18.82506073 47.18493652 18.83555603 C45.81142029 18.8387661 45.81142029 18.8387661 44.41015625 18.84204102 C42.47395523 18.8671936 40.53775738 18.89259173 38.6015625 18.91821289 C35.54672007 18.9470043 32.49193264 18.97102066 29.43701172 18.98974609 C26.49027382 19.01134696 23.54417459 19.05077453 20.59765625 19.09204102 C19.68197876 19.09215683 18.76630127 19.09227264 17.82287598 19.09239197 C16.54640198 19.11240013 16.54640198 19.11240013 15.24414062 19.1328125 C14.49596069 19.13788315 13.74778076 19.1429538 12.97692871 19.1481781 C10.46178374 19.63930672 9.56838904 20.54075182 8.00390625 22.53344727 C7.38157004 25.5778487 7.47949978 28.47532955 8.00390625 31.53344727 C9.81655273 34.10335724 9.81655273 34.10335724 12.00390625 35.53344727 C4.89186249 35.27482749 0.48351284 33.02446503 -4.99609375 28.53344727 C-5.51888916 28.12932617 -6.04168457 27.72520508 -6.58032227 27.30883789 C-9.83950103 24.51318463 -11.37043253 22.49422579 -11.7578125 18.15063477 C-11.76438866 16.56972569 -11.73900803 14.98839853 -11.68359375 13.40844727 C-11.69841797 12.61051758 -11.71324219 11.81258789 -11.72851562 10.99047852 C-11.66572044 6.56526482 -11.66572044 6.56526482 -10.99609375 4.53344727 C-7.35294857 1.01525097 -5.03395791 0.03001163 0 0 Z " fill="#6D92EF" transform="translate(261.99609375,43.466552734375)"/>
<path d="M0 0 C2.578125 1.03515625 2.578125 1.03515625 5 3 C5.86883038 5.64772376 6.45344928 7.97477333 6.9375 10.6875 C8.57214983 18.25917769 10.59148364 23.81698539 17.09375 28.51171875 C18.46122125 29.37629749 19.85058465 30.20788219 21.265625 30.9921875 C23 32 23 32 25 34 C17.66979936 37.0072618 10.58506117 36.86333582 3.203125 34.1015625 C-5.07621423 29.96189289 -9.15948736 23.52153792 -12 15 C-12.53094699 10.35203781 -12.64784823 7.03655716 -10.125 3 C-6.73604791 -0.18960196 -4.60653411 -0.36129679 0 0 Z " fill="#67B3F0" transform="translate(339,96)"/>
<path d="M0 0 C3.55247432 0.87379409 4.94828114 2.4927342 6.9375 5.4765625 C7.89247616 8.42006497 8.01780347 10.55574201 6.9375 13.4765625 C1.96015623 18.65892272 -4.16408201 20.38157552 -11.0625 21.4765625 C-11.19809675 18.91227735 -11.29683188 16.35521034 -11.375 13.7890625 C-11.41689453 13.06783203 -11.45878906 12.34660156 -11.50195312 11.60351562 C-11.59660868 7.45760212 -11.39822381 5.9174528 -8.79296875 2.49609375 C-5.47374569 0.0411033 -3.97750232 -0.28625964 0 0 Z " fill="#63CFF1" transform="translate(137.0625,43.5234375)"/>
<path d="M0 0 C0 2.97 0 5.94 0 9 C-0.59167969 9.23074219 -1.18335938 9.46148437 -1.79296875 9.69921875 C-9.39567361 12.83703984 -13.60311867 16.3123212 -17 24 C-17.33 24 -17.66 24 -18 24 C-18 18.72 -18 13.44 -18 8 C-15.69 7.34 -13.38 6.68 -11 6 C-8.17256797 4.54422736 -8.17256797 4.54422736 -5.625 2.875 C-1.07177033 0 -1.07177033 0 0 0 Z " fill="#6AA7F1" transform="translate(144,57)"/>
<path d="M0 0 C0.99 0.33 1.98 0.66 3 1 C2.67 6.61 2.34 12.22 2 18 C-3 16 -3 16 -4.3125 14.3125 C-5.30490009 10.97442699 -5.42578601 8.46711464 -5 5 C-2.5 2.0625 -2.5 2.0625 0 0 Z " fill="#66A0EA" transform="translate(160,44)"/>
<path d="M0 0 C0 0.66 0 1.32 0 2 C-0.59167969 2.23074219 -1.18335938 2.46148437 -1.79296875 2.69921875 C-9.39567361 5.83703984 -13.60311867 9.3123212 -17 17 C-17.33 17 -17.66 17 -18 17 C-18 13.37 -18 9.74 -18 6 C-16.25197854 5.18325204 -14.50149811 4.37176549 -12.75 3.5625 C-11.77546875 3.11003906 -10.8009375 2.65757813 -9.796875 2.19140625 C-6.32203417 0.71120171 -3.77402671 0 0 0 Z " fill="#6E8CEF" transform="translate(144,64)"/>
<path d="M0 0 C0.66 0.33 1.32 0.66 2 1 C1.67 1.33 1.34 1.66 1 2 C0.84344973 3.48638992 0.74933057 4.97949127 0.68359375 6.47265625 C0.64169922 7.37177734 0.59980469 8.27089844 0.55664062 9.19726562 C0.49766602 10.61555664 0.49766602 10.61555664 0.4375 12.0625 C0.37272461 13.4865918 0.37272461 13.4865918 0.30664062 14.93945312 C0.20020724 17.29281353 0.09818992 19.64628354 0 22 C-3.51987293 18.48012707 -4.14950306 14.26957718 -4.375 9.4375 C-4.30290132 5.16925796 -3.11569745 3.0183319 0 0 Z " fill="#6F85EF" transform="translate(331,97)"/>
<path d="M0 0 C0 0.99 0 1.98 0 3 C-4.76950631 7.26266504 -10.95509199 9.27888036 -17 11 C-17 10.01 -17 9.02 -17 8 C-16.05125 7.79375 -15.1025 7.5875 -14.125 7.375 C-8.90921851 5.91843679 -4.52388138 2.89455589 0 0 Z " fill="#67B8F2" transform="translate(143,57)"/>
<path d="M0 0 C0.33 0 0.66 0 1 0 C1.08090971 1.62418745 1.13914995 3.24951745 1.1875 4.875 C1.22230469 5.77992187 1.25710937 6.68484375 1.29296875 7.6171875 C1.19628906 8.40351562 1.09960938 9.18984375 1 10 C0.01 10.66 -0.98 11.32 -2 12 C-2.17835515 7.45194365 -1.99785435 4.1205746 0 0 Z " fill="#68A9F0" transform="translate(210,53)"/>
<path d="M0 0 C0 0.66 0 1.32 0 2 C-1.60064843 2.53154742 -3.20568874 3.04988353 -4.8125 3.5625 C-5.70582031 3.85253906 -6.59914062 4.14257812 -7.51953125 4.44140625 C-10 5 -10 5 -13 4 C-11.39850114 3.32694982 -9.79368971 2.66177773 -8.1875 2 C-7.29417969 1.62875 -6.40085938 1.2575 -5.48046875 0.875 C-3 0 -3 0 0 0 Z " fill="#6D94F0" transform="translate(144,64)"/>
<path d="M0 0 C1.32 0 2.64 0 4 0 C2.25 5.75 2.25 5.75 0 8 C0 5.36 0 2.72 0 0 Z " fill="#7375EE" transform="translate(126,73)"/>
</svg>
